ply
format ascii 1.0
element vertex 25
property float x
property float y
property float z
end_header
-0.336224 -1.437036 -0.006876
0.921857 -1.398778 -0.255917
2.147915 -1.314178 -1.345595
2.156882 -1.311951 -1.382351
2.068588 -1.252076 -2.484704
2.025583 -1.224084 -3.000664
1.745023 -1.201325 -3.505240
1.197281 -1.176057 -4.147269
1.158003 -1.174670 -4.185708
0.970349 -1.173185 -4.277280
-0.220970 -1.180887 -4.552076
-1.053228 -1.195161 -4.584844
-1.228944 -1.198551 -4.585033
-1.267793 -1.199814 -4.575883
-1.684363 -1.246069 -3.892200
-1.696458 -1.252680 -3.778056
-1.571307 -1.377788 -1.495251
-1.539876 -1.390474 -1.257274
-1.507763 -1.402430 -1.032133
-1.401269 -1.413067 -0.804844
-1.283475 -1.418266 -0.670981
-1.146649 -1.423784 -0.524804
-1.088339 -1.425491 -0.474053
-0.623340 -1.436738 -0.111662
-0.404202 -1.437199 -0.027507
